# xmcd
#
# Track frame offsets:
#	150
#	10800
#	25687
#	35157
#	47433
#	59840
#	72290
#	83990
#	98262
#	110450
#	121954
#	133448
#	145747
#	156359
#	173323
#	182476
#	191192
#	204059
#	214808
#	228175
#
# Disc length: 3258 seconds
#
# Revision: 0
# Processed by: cddbd v1.5.2PL0 Copyright (c) Steve Scherf et al.
# Submitted via: EasyCDDAExtractor 12.0.1.1
#
DISCID=0e0cb814
DTITLE=Ole Ivars - Kavalkade - 40 Låter Gjennom 30 År [CD 1)
DYEAR=1994
DGENRE=Danseband
TTITLE0=Jeg har altid en venn i gitaren
TTITLE1=To små forglemmegei
TTITLE2=En rødhåret jente
TTITLE3=Regnets Rytme
TTITLE4=Line
TTITLE5=Har jeg sagt deg alt jeg vil si deg
TTITLE6=Hun er atten år i dag
TTITLE7=Da du var min
TTITLE8=Fra Frisco til Kapp
TTITLE9=Glem den snø som falt i fjor
TTITLE10=Det blir aldri som det var i 50-åra
TTITLE11=Your mama don`t dance
TTITLE12=I kjempeform
TTITLE13=Jeg har funnet den jenta jeg vil ha
TTITLE14=Blueberry Hill
TTITLE15=Bli min gjest
TTITLE16=God country music
TTITLE17=Ann Cathrine
TTITLE18=Hi-Lili-Hi-Lo
TTITLE19=Voggevisetone
EXTD=
EXTT0=
EXTT1=
EXTT2=
EXTT3=
EXTT4=
EXTT5=
EXTT6=
EXTT7=
EXTT8=
EXTT9=
EXTT10=
EXTT11=
EXTT12=
EXTT13=
EXTT14=
EXTT15=
EXTT16=
EXTT17=
EXTT18=
EXTT19=
PLAYORDER=
